<svg xmlns="http://www.w3.org/2000/svg" viewBox="0 0 807.00 254.00">
<path d="M 679.50 2.00 L 679.50 0.00 Z" fill="#111111" fill-rule="evenodd"/>
<path d="M 680.50 14.00 L 678.00 10.50 L 679.50 8.00 Z" fill="#111111" fill-rule="evenodd"/>
<path d="M 175.50 114.00 L 192.50 10.00 L 306.50 10.00 L 321.50 15.00 L 330.00 23.50 L 333.00 32.50 L 333.00 42.50 L 327.00 82.50 L 322.00 95.50 L 311.50 106.00 L 289.50 113.00 Z" fill="#111111" fill-rule="evenodd"/>
<path d="M 331.50 114.00 L 347.50 10.00 L 398.00 10.50 L 386.50 86.00 L 430.50 87.00 L 433.50 85.00 L 436.50 87.00 L 465.00 86.50 L 460.50 113.00 Z" fill="#111111" fill-rule="evenodd"/>
<path d="M 529.50 114.00 L 469.00 112.50 L 472.00 105.50 L 486.00 10.50 L 616.50 10.00 L 618.00 11.50 L 616.00 12.50 L 611.50 37.00 L 588.50 36.00 L 585.50 38.00 L 584.50 36.00 L 532.50 36.00 L 530.00 37.50 L 528.50 50.00 L 602.50 49.00 L 604.00 52.50 L 599.50 75.00 L 530.00 76.50 L 570.50 67.00 L 572.50 57.00 L 492.00 71.50 L 489.50 85.00 L 524.50 78.00 L 523.00 80.50 L 523.50 87.00 L 607.00 86.50 L 602.50 113.00 Z" fill="#111111" fill-rule="evenodd"/>
<path d="M 681.50 114.00 L 663.00 113.50 L 666.00 106.50 L 670.00 81.50 L 664.00 72.50 L 660.00 70.50 L 660.00 66.50 L 657.50 64.00 L 655.00 64.50 L 657.00 62.50 L 646.00 46.50 L 643.00 45.50 L 644.00 43.50 L 627.00 18.50 L 621.50 12.00 L 619.00 11.50 L 620.50 10.00 L 676.50 10.00 L 702.50 48.00 L 747.50 10.00 L 807.00 10.50 L 720.00 86.50 L 715.50 113.00 Z" fill="#111111" fill-rule="evenodd"/>
<path d="M 172.50 113.00 L 123.00 112.50 L 113.00 76.50 L 130.50 72.00 L 131.00 68.50 L 127.50 61.00 L 109.50 64.00 L 104.00 48.50 L 101.00 47.50 L 103.00 44.50 L 100.50 39.00 L 85.00 63.50 L 78.00 69.50 L 70.00 81.50 L 67.00 89.50 L 50.50 113.00 L 0.00 112.50 L 67.50 10.00 L 142.50 10.00 L 145.00 17.50 L 147.00 18.50 L 146.00 21.50 L 152.00 41.50 L 154.00 42.50 L 153.00 45.50 L 172.00 106.50 Z" fill="#111111" fill-rule="evenodd"/>
<path d="M 314.50 11.00 L 312.00 10.50 Z" fill="#111111" fill-rule="evenodd"/>
<path d="M 484.50 13.00 L 483.50 10.00 L 485.00 10.50 Z" fill="#111111" fill-rule="evenodd"/>
<path d="M 400.50 12.00 L 399.00 11.50 Z" fill="#111111" fill-rule="evenodd"/>
<path d="M 189.50 17.00 L 189.50 15.00 Z" fill="#111111" fill-rule="evenodd"/>
<path d="M 483.50 18.00 L 483.50 15.00 Z" fill="#111111" fill-rule="evenodd"/>
<path d="M 187.50 28.00 L 187.50 26.00 Z" fill="#111111" fill-rule="evenodd"/>
<path d="M 631.50 29.00 L 631.50 27.00 Z" fill="#111111" fill-rule="evenodd"/>
<path d="M 724.50 29.00 L 723.00 28.50 Z" fill="#111111" fill-rule="evenodd"/>
<path d="M 633.50 33.00 L 633.50 30.00 Z" fill="#111111" fill-rule="evenodd"/>
<path d="M 264.00 86.50 L 275.50 85.00 L 280.00 81.50 L 283.00 75.50 L 285.00 65.50 L 284.00 58.50 L 286.00 57.50 L 287.00 49.50 L 285.00 40.50 L 277.50 36.00 L 235.50 35.00 L 227.00 85.50 L 228.50 87.00 Z" fill="#111111" fill-rule="evenodd"/>
<path d="M 480.50 38.00 L 479.00 36.50 L 480.50 35.00 Z" fill="#111111" fill-rule="evenodd"/>
<path d="M 705.50 38.00 L 705.50 36.00 Z" fill="#111111" fill-rule="evenodd"/>
<path d="M 274.50 38.00 L 267.00 37.50 Z" fill="#111111" fill-rule="evenodd"/>
<path d="M 277.50 38.00 L 276.00 37.50 Z" fill="#111111" fill-rule="evenodd"/>
<path d="M 640.50 41.00 L 639.50 39.00 Z" fill="#111111" fill-rule="evenodd"/>
<path d="M 705.50 45.00 L 703.50 42.00 L 707.00 43.50 Z" fill="#111111" fill-rule="evenodd"/>
<path d="M 154.50 45.00 L 154.50 43.00 Z" fill="#111111" fill-rule="evenodd"/>
<path d="M 394.50 45.00 L 394.50 43.00 Z" fill="#111111" fill-rule="evenodd"/>
<path d="M 530.50 46.00 L 530.50 44.00 Z" fill="#111111" fill-rule="evenodd"/>
<path d="M 99.50 52.00 L 99.50 50.00 Z" fill="#111111" fill-rule="evenodd"/>
<path d="M 339.50 53.00 L 339.50 50.00 Z" fill="#111111" fill-rule="evenodd"/>
<path d="M 103.50 54.00 L 103.50 51.00 Z" fill="#111111" fill-rule="evenodd"/>
<path d="M 284.50 53.00 L 284.50 51.00 Z" fill="#111111" fill-rule="evenodd"/>
<path d="M 104.50 56.00 L 104.50 54.00 Z" fill="#111111" fill-rule="evenodd"/>
<path d="M 651.50 62.00 L 651.00 58.50 L 652.50 58.00 Z" fill="#111111" fill-rule="evenodd"/>
<path d="M 653.50 62.00 L 653.50 60.00 Z" fill="#111111" fill-rule="evenodd"/>
<path d="M 88.50 64.00 L 87.00 63.50 L 88.50 62.00 Z" fill="#111111" fill-rule="evenodd"/>
<path d="M 106.50 64.00 L 100.00 63.50 Z" fill="#111111" fill-rule="evenodd"/>
<path d="M 651.50 65.00 L 651.50 63.00 Z" fill="#111111" fill-rule="evenodd"/>
<path d="M 97.50 65.00 L 91.00 64.50 Z" fill="#111111" fill-rule="evenodd"/>
<path d="M 602.50 69.00 L 602.50 67.00 Z" fill="#111111" fill-rule="evenodd"/>
<path d="M 179.50 76.00 L 180.50 74.00 Z" fill="#111111" fill-rule="evenodd"/>
<path d="M 180.50 78.00 L 180.50 76.00 Z" fill="#111111" fill-rule="evenodd"/>
<path d="M 530.50 79.00 L 525.00 77.50 L 529.50 77.00 Z" fill="#111111" fill-rule="evenodd"/>
<path d="M 19.50 83.00 L 19.50 81.00 Z" fill="#111111" fill-rule="evenodd"/>
<path d="M 726.50 86.00 L 725.00 85.50 Z" fill="#111111" fill-rule="evenodd"/>
<path d="M 466.50 88.00 L 466.50 86.00 Z" fill="#111111" fill-rule="evenodd"/>
<path d="M 175.50 108.00 L 174.00 107.50 L 175.50 106.00 Z" fill="#111111" fill-rule="evenodd"/>
<path d="M 331.50 110.00 L 331.50 108.00 Z" fill="#111111" fill-rule="evenodd"/>
<path d="M 726.50 110.00 L 725.00 109.50 Z" fill="#111111" fill-rule="evenodd"/>
<path d="M 293.50 114.00 L 290.00 113.50 Z" fill="#111111" fill-rule="evenodd"/>
<path d="M 296.50 114.00 L 295.00 113.50 Z" fill="#111111" fill-rule="evenodd"/>
<path d="M 651.50 132.00 L 651.50 130.00 Z" fill="#111111" fill-rule="evenodd"/>
<path d="M 112.50 132.00 L 111.00 131.50 Z" fill="#111111" fill-rule="evenodd"/>
<path d="M 129.50 134.00 L 128.00 133.50 L 130.50 131.00 Z" fill="#111111" fill-rule="evenodd"/>
<path d="M 103.50 135.00 L 100.00 134.50 L 101.50 133.00 Z" fill="#111111" fill-rule="evenodd"/>
<path d="M 149.50 135.00 L 148.00 134.50 L 149.50 133.00 Z" fill="#111111" fill-rule="evenodd"/>
<path d="M 652.50 135.00 L 651.50 133.00 Z" fill="#111111" fill-rule="evenodd"/>
<path d="M 125.50 135.00 L 124.00 134.50 Z" fill="#111111" fill-rule="evenodd"/>
<path d="M 146.50 135.00 L 145.00 134.50 Z" fill="#111111" fill-rule="evenodd"/>
<path d="M 154.50 135.00 L 153.00 134.50 Z" fill="#111111" fill-rule="evenodd"/>
<path d="M 184.50 135.00 L 182.00 134.50 Z" fill="#111111" fill-rule="evenodd"/>
<path d="M 223.50 135.00 L 222.00 134.50 Z" fill="#111111" fill-rule="evenodd"/>
<path d="M 278.50 135.00 L 277.00 134.50 Z" fill="#111111" fill-rule="evenodd"/>
<path d="M 384.50 135.00 L 382.00 134.50 Z" fill="#111111" fill-rule="evenodd"/>
<path d="M 392.50 135.00 L 390.00 134.50 Z" fill="#111111" fill-rule="evenodd"/>
<path d="M 457.50 135.00 L 456.00 134.50 Z" fill="#111111" fill-rule="evenodd"/>
<path d="M 555.50 135.00 L 554.00 134.50 Z" fill="#111111" fill-rule="evenodd"/>
<path d="M 563.50 135.00 L 561.00 134.50 Z" fill="#111111" fill-rule="evenodd"/>
<path d="M 297.50 178.00 L 251.00 177.50 L 259.50 136.00 L 299.50 135.00 L 307.00 137.50 L 305.00 138.50 L 304.50 147.00 L 273.50 147.00 L 273.00 149.50 L 275.00 150.50 L 272.00 151.50 L 273.50 153.00 L 298.50 152.00 L 300.00 153.50 L 297.50 162.00 L 270.00 162.50 L 270.50 167.00 L 271.50 164.00 L 272.50 167.00 L 281.50 167.00 L 282.50 165.00 L 283.50 167.00 L 300.50 166.00 L 300.00 176.50 Z" fill="#111111" fill-rule="evenodd"/>
<path d="M 613.50 178.00 L 566.50 178.00 L 574.00 142.50 L 574.00 138.50 L 572.00 137.50 L 584.50 135.00 L 619.50 136.00 L 621.00 137.50 L 618.50 147.00 L 588.00 147.50 L 588.50 153.00 L 614.50 152.00 L 613.50 162.00 L 585.00 162.50 L 585.50 167.00 L 614.50 167.00 L 615.50 165.00 L 617.00 168.50 L 615.00 175.50 L 617.00 176.50 Z" fill="#111111" fill-rule="evenodd"/>
<path d="M 119.50 178.00 L 72.50 178.00 L 71.00 176.50 L 73.00 175.50 L 72.00 170.50 L 74.00 170.50 L 80.50 136.00 L 128.00 136.50 L 125.50 147.00 L 94.50 147.00 L 93.00 149.50 L 93.50 153.00 L 120.50 152.00 L 123.00 153.50 L 121.00 154.50 L 123.00 157.50 L 119.50 162.00 L 91.00 162.50 L 91.50 167.00 L 114.00 166.50 L 111.50 165.00 L 115.50 165.00 L 115.50 167.00 L 122.50 167.00 L 121.00 175.50 L 123.00 176.50 Z" fill="#111111" fill-rule="evenodd"/>
<path d="M 185.50 178.00 L 163.50 177.00 L 164.50 175.00 L 166.00 175.50 L 165.00 173.50 L 161.00 167.50 L 156.00 164.50 L 158.00 163.50 L 151.50 154.00 L 147.00 176.50 L 145.50 178.00 L 131.50 178.00 L 130.00 175.50 L 132.00 171.50 L 131.00 168.50 L 133.00 165.50 L 138.00 136.50 L 156.50 136.00 L 173.50 160.00 L 178.00 136.50 L 192.50 136.00 L 194.00 137.50 Z" fill="#111111" fill-rule="evenodd"/>
<path d="M 159.50 138.00 L 159.50 136.00 Z" fill="#111111" fill-rule="evenodd"/>
<path d="M 225.50 178.00 L 210.00 177.50 L 212.00 166.50 L 211.00 162.50 L 213.00 160.50 L 215.00 147.50 L 198.50 147.00 L 199.50 136.00 L 250.50 136.00 L 252.00 137.50 L 249.50 147.00 L 233.50 147.00 L 231.00 148.50 Z" fill="#111111" fill-rule="evenodd"/>
<path d="M 362.50 178.00 L 344.50 178.00 L 340.50 173.00 L 339.00 173.50 L 340.00 171.50 L 334.50 165.00 L 326.50 165.00 L 325.00 166.50 L 323.50 178.00 L 308.50 178.00 L 307.00 172.50 L 310.00 166.50 L 315.00 136.50 L 356.50 136.00 L 362.50 138.00 L 368.00 146.50 L 367.00 153.50 L 361.50 161.00 L 354.00 164.50 L 358.50 170.00 L 361.00 170.50 L 359.00 171.50 L 362.00 174.50 Z" fill="#111111" fill-rule="evenodd"/>
<path d="M 385.50 178.00 L 372.50 178.00 L 370.00 176.50 L 376.00 141.50 L 378.50 136.00 L 416.50 136.00 L 426.00 142.50 L 428.00 146.50 L 427.00 154.50 L 420.50 163.00 L 413.50 166.00 L 388.50 166.00 Z" fill="#111111" fill-rule="evenodd"/>
<path d="M 484.50 178.00 L 461.50 178.00 L 459.00 176.50 L 462.00 175.50 L 460.00 171.50 L 454.50 165.00 L 446.00 165.50 L 443.50 178.00 L 427.50 178.00 L 435.00 137.50 L 436.50 136.00 L 475.50 136.00 L 483.50 140.00 L 486.00 144.50 L 486.00 152.50 L 480.50 161.00 L 473.00 164.50 Z" fill="#111111" fill-rule="evenodd"/>
<path d="M 505.50 178.00 L 488.50 178.00 L 487.00 176.50 L 495.50 136.00 L 512.00 136.50 L 504.00 174.50 Z" fill="#111111" fill-rule="evenodd"/>
<path d="M 547.50 178.00 L 512.50 178.00 L 511.00 176.50 L 513.50 165.00 L 515.50 167.00 L 544.50 167.00 L 546.00 165.50 L 544.50 163.00 L 540.50 162.00 L 523.50 160.00 L 516.00 154.50 L 516.00 147.50 L 522.50 139.00 L 530.50 136.00 L 566.00 136.50 L 563.50 147.00 L 535.50 147.00 L 532.00 148.50 L 535.50 151.00 L 555.50 153.00 L 562.00 158.50 L 563.00 164.50 L 561.00 170.50 L 556.50 175.00 Z" fill="#111111" fill-rule="evenodd"/>
<path d="M 655.50 178.00 L 619.00 177.50 L 621.00 176.50 L 622.50 167.00 L 630.50 167.00 L 631.50 164.00 L 635.00 165.50 L 632.50 167.00 L 655.50 167.00 L 657.00 164.50 L 655.50 163.00 L 636.50 161.00 L 629.50 158.00 L 626.00 153.50 L 626.00 146.50 L 630.50 140.00 L 640.50 136.00 L 674.50 136.00 L 673.50 147.00 L 644.50 147.00 L 642.00 148.50 L 645.50 151.00 L 665.50 153.00 L 672.00 158.50 L 673.00 166.50 L 669.00 173.50 L 663.50 177.00 Z" fill="#111111" fill-rule="evenodd"/>
<path d="M 197.50 142.00 L 196.00 141.50 L 197.50 139.00 Z" fill="#111111" fill-rule="evenodd"/>
<path d="M 307.50 149.00 L 307.50 147.00 Z" fill="#111111" fill-rule="evenodd"/>
<path d="M 347.00 154.50 L 350.00 151.50 L 350.00 148.50 L 347.50 147.00 L 329.00 147.50 L 328.50 155.00 Z" fill="#111111" fill-rule="evenodd"/>
<path d="M 405.00 155.50 L 409.00 154.50 L 409.50 148.00 L 391.00 147.50 L 390.50 156.00 Z" fill="#111111" fill-rule="evenodd"/>
<path d="M 466.00 154.50 L 469.00 151.50 L 468.50 148.00 L 468.00 151.50 L 466.00 151.50 L 467.00 150.50 L 465.00 149.50 L 466.50 147.00 L 450.50 147.00 L 449.00 148.50 L 448.50 155.00 Z" fill="#111111" fill-rule="evenodd"/>
<path d="M 197.50 150.00 L 197.50 148.00 Z" fill="#111111" fill-rule="evenodd"/>
<path d="M 211.50 149.00 L 210.00 148.50 Z" fill="#111111" fill-rule="evenodd"/>
<path d="M 213.50 150.00 L 213.50 148.00 Z" fill="#111111" fill-rule="evenodd"/>
<path d="M 562.50 149.00 L 561.00 148.50 Z" fill="#111111" fill-rule="evenodd"/>
<path d="M 655.50 149.00 L 654.00 148.50 Z" fill="#111111" fill-rule="evenodd"/>
<path d="M 116.50 151.00 L 116.50 149.00 Z" fill="#111111" fill-rule="evenodd"/>
<path d="M 610.50 151.00 L 610.50 149.00 Z" fill="#111111" fill-rule="evenodd"/>
<path d="M 103.50 151.00 L 102.00 150.50 Z" fill="#111111" fill-rule="evenodd"/>
<path d="M 679.50 154.00 L 679.50 152.00 Z" fill="#111111" fill-rule="evenodd"/>
<path d="M 212.50 156.00 L 211.50 154.00 Z" fill="#111111" fill-rule="evenodd"/>
<path d="M 172.50 158.00 L 172.50 156.00 Z" fill="#111111" fill-rule="evenodd"/>
<path d="M 211.50 161.00 L 211.50 158.00 Z" fill="#111111" fill-rule="evenodd"/>
<path d="M 615.50 161.00 L 615.50 159.00 Z" fill="#111111" fill-rule="evenodd"/>
<path d="M 153.50 162.00 L 153.50 160.00 Z" fill="#111111" fill-rule="evenodd"/>
<path d="M 151.50 162.00 L 150.00 161.50 Z" fill="#111111" fill-rule="evenodd"/>
<path d="M 308.50 165.00 L 307.50 162.00 L 309.00 162.50 Z" fill="#111111" fill-rule="evenodd"/>
<path d="M 131.50 166.00 L 131.50 163.00 Z" fill="#111111" fill-rule="evenodd"/>
<path d="M 606.50 164.00 L 605.00 163.50 Z" fill="#111111" fill-rule="evenodd"/>
<path d="M 674.50 165.00 L 674.50 163.00 Z" fill="#111111" fill-rule="evenodd"/>
<path d="M 101.50 166.00 L 99.00 165.50 Z" fill="#111111" fill-rule="evenodd"/>
<path d="M 104.50 166.00 L 103.00 165.50 Z" fill="#111111" fill-rule="evenodd"/>
<path d="M 109.50 166.00 L 107.00 165.50 Z" fill="#111111" fill-rule="evenodd"/>
<path d="M 294.50 166.00 L 292.00 165.50 Z" fill="#111111" fill-rule="evenodd"/>
<path d="M 536.50 166.00 L 535.00 165.50 Z" fill="#111111" fill-rule="evenodd"/>
<path d="M 567.50 169.00 L 567.50 165.00 Z" fill="#111111" fill-rule="evenodd"/>
<path d="M 589.50 166.00 L 586.00 165.50 Z" fill="#111111" fill-rule="evenodd"/>
<path d="M 595.50 166.00 L 594.00 165.50 Z" fill="#111111" fill-rule="evenodd"/>
<path d="M 602.50 166.00 L 597.00 165.50 Z" fill="#111111" fill-rule="evenodd"/>
<path d="M 629.50 166.00 L 626.00 165.50 Z" fill="#111111" fill-rule="evenodd"/>
<path d="M 647.50 166.00 L 645.00 165.50 Z" fill="#111111" fill-rule="evenodd"/>
<path d="M 406.50 168.00 L 404.00 167.50 Z" fill="#111111" fill-rule="evenodd"/>
<path d="M 447.50 170.00 L 447.50 168.00 Z" fill="#111111" fill-rule="evenodd"/>
<path d="M 454.50 169.00 L 453.00 168.50 Z" fill="#111111" fill-rule="evenodd"/>
<path d="M 674.50 170.00 L 673.50 168.00 Z" fill="#111111" fill-rule="evenodd"/>
<path d="M 482.50 175.00 L 483.00 170.50 L 484.50 170.00 L 485.00 172.50 Z" fill="#111111" fill-rule="evenodd"/>
<path d="M 487.50 173.00 L 486.50 170.00 Z" fill="#111111" fill-rule="evenodd"/>
<path d="M 564.50 172.00 L 563.00 171.50 L 564.50 170.00 Z" fill="#111111" fill-rule="evenodd"/>
<path d="M 566.50 172.00 L 566.50 170.00 Z" fill="#111111" fill-rule="evenodd"/>
<path d="M 619.50 172.00 L 619.50 170.00 Z" fill="#111111" fill-rule="evenodd"/>
<path d="M 129.50 174.00 L 129.50 172.00 Z" fill="#111111" fill-rule="evenodd"/>
<path d="M 362.50 174.00 L 362.50 172.00 Z" fill="#111111" fill-rule="evenodd"/>
<path d="M 561.50 173.00 L 560.00 172.50 Z" fill="#111111" fill-rule="evenodd"/>
<path d="M 459.50 175.00 L 459.50 173.00 Z" fill="#111111" fill-rule="evenodd"/>
<path d="M 341.50 178.00 L 339.00 177.50 L 340.50 174.00 Z" fill="#111111" fill-rule="evenodd"/>
<path d="M 565.50 177.00 L 564.00 175.50 L 565.50 174.00 Z" fill="#111111" fill-rule="evenodd"/>
<path d="M 563.50 178.00 L 563.50 176.00 Z" fill="#111111" fill-rule="evenodd"/>
<path d="M 666.50 178.00 L 664.00 177.50 Z" fill="#111111" fill-rule="evenodd"/>
<path d="M 492.50 85.00 L 489.00 84.50 L 492.00 71.50 L 494.50 70.00 L 573.00 57.50 L 572.00 65.50 L 570.50 67.00 Z" fill="#D61F2C" fill-rule="evenodd"/>
<path d="M 72.50 87.00 L 68.50 87.00 L 68.00 85.50 L 81.50 65.00 L 97.50 65.00 L 107.50 63.00 L 110.50 64.00 L 127.50 61.00 L 129.00 62.50 L 131.00 68.50 L 130.50 72.00 Z" fill="#D61F2C" fill-rule="evenodd"/>
<path d="M 79.50 87.00 L 78.00 86.50 Z" fill="#D61F2C" fill-rule="evenodd"/>
<path d="M 657.50 178.00 L 656.00 177.50 Z" fill="#D61F2C" fill-rule="evenodd"/>
<path d="M 7.50 234.00 L 0.00 233.50 L 8.50 231.00 L 153.50 216.00 L 156.50 217.00 L 244.50 209.00 L 334.50 204.00 L 339.50 202.00 L 352.50 203.00 L 369.50 201.00 L 372.50 202.00 L 488.00 195.50 L 484.50 194.00 L 510.50 195.00 L 581.50 191.00 L 692.50 188.00 L 699.50 186.00 L 729.50 187.00 L 760.50 185.00 L 780.00 185.50 L 779.50 187.00 L 758.50 198.00 L 754.50 202.00 L 753.50 201.00 L 746.50 206.00 L 739.50 208.00 L 738.50 210.00 L 730.50 208.00 L 714.50 208.00 L 713.50 210.00 L 711.50 208.00 L 706.50 210.00 L 621.50 209.00 L 502.50 211.00 L 490.50 213.00 L 459.50 212.00 L 395.50 215.00 L 390.50 214.00 L 364.50 216.00 L 361.50 215.00 L 256.50 219.00 L 235.50 221.00 L 232.50 220.00 L 172.50 224.00 L 170.50 223.00 L 155.50 225.00 L 154.50 224.00 L 116.50 226.00 L 112.50 228.00 L 82.50 228.00 Z" fill="#D61F2C" fill-rule="evenodd"/>
<path d="M 676.50 187.00 L 675.00 186.50 Z" fill="#D61F2C" fill-rule="evenodd"/>
<path d="M 651.50 188.00 L 650.00 187.50 Z" fill="#D61F2C" fill-rule="evenodd"/>
<path d="M 623.50 189.00 L 621.00 188.50 Z" fill="#D61F2C" fill-rule="evenodd"/>
<path d="M 567.50 191.00 L 566.00 190.50 Z" fill="#D61F2C" fill-rule="evenodd"/>
<path d="M 478.50 195.00 L 477.00 194.50 Z" fill="#D61F2C" fill-rule="evenodd"/>
<path d="M 419.50 198.00 L 418.00 197.50 Z" fill="#D61F2C" fill-rule="evenodd"/>
<path d="M 388.50 200.00 L 387.00 199.50 Z" fill="#D61F2C" fill-rule="evenodd"/>
<path d="M 729.50 210.00 L 728.00 209.50 Z" fill="#D61F2C" fill-rule="evenodd"/>
<path d="M 514.50 214.00 L 514.50 212.00 Z" fill="#D61F2C" fill-rule="evenodd"/>
<path d="M 346.50 218.00 L 343.00 217.50 Z" fill="#D61F2C" fill-rule="evenodd"/>
<path d="M 115.50 219.00 L 114.00 218.50 Z" fill="#D61F2C" fill-rule="evenodd"/>
<path d="M 246.50 222.00 L 245.00 221.50 Z" fill="#D61F2C" fill-rule="evenodd"/>
<path d="M 223.50 223.00 L 222.00 222.50 Z" fill="#D61F2C" fill-rule="evenodd"/>
<path d="M 197.50 225.00 L 196.50 223.00 L 198.00 223.50 Z" fill="#D61F2C" fill-rule="evenodd"/>
<path d="M 205.50 224.00 L 204.00 223.50 Z" fill="#D61F2C" fill-rule="evenodd"/>
<path d="M 184.50 225.00 L 183.00 224.50 Z" fill="#D61F2C" fill-rule="evenodd"/>
<path d="M 160.50 226.00 L 159.00 225.50 Z" fill="#D61F2C" fill-rule="evenodd"/>
<path d="M 31.50 227.00 L 30.00 226.50 Z" fill="#D61F2C" fill-rule="evenodd"/>
<path d="M 35.50 234.00 L 34.00 233.50 Z" fill="#D61F2C" fill-rule="evenodd"/>
<path d="M 726.50 254.00 L 725.00 253.50 Z" fill="#D61F2C" fill-rule="evenodd"/>
</svg>