<svg xmlns="http://www.w3.org/2000/svg" viewBox="0 0 804.00 230.00">
<path d="M 459.50 109.00 L 337.00 108.50 L 351.50 0.00 L 397.00 0.50 L 386.00 81.50 L 463.50 83.00 L 461.00 107.50 Z" fill="#FFFFFF" fill-rule="evenodd"/>
<path d="M 602.50 109.00 L 472.50 109.00 L 472.00 102.50 L 486.00 0.50 L 612.50 0.00 L 610.00 25.50 L 608.50 27.00 L 529.50 27.00 L 528.00 28.50 L 527.50 43.00 L 600.50 43.00 L 601.00 49.50 L 597.50 68.00 L 540.00 67.50 L 571.50 60.00 L 572.00 51.50 L 568.50 51.00 L 494.50 63.00 L 491.00 72.50 L 491.00 77.50 L 494.50 78.00 L 521.50 72.00 L 521.50 82.00 L 605.50 83.00 Z" fill="#FFFFFF" fill-rule="evenodd"/>
<path d="M 712.50 107.00 L 666.00 106.50 L 670.00 69.50 L 623.00 4.50 L 621.50 0.00 L 675.50 0.00 L 701.50 37.00 L 704.50 37.00 L 747.50 0.00 L 804.00 0.50 L 717.00 75.50 L 715.00 98.50 Z" fill="#FFFFFF" fill-rule="evenodd"/>
<path d="M 176.50 107.00 L 126.00 106.50 L 116.00 68.50 L 134.50 64.00 L 134.00 57.50 L 132.50 56.00 L 112.50 58.00 L 103.50 30.00 L 100.00 31.50 L 74.00 68.50 L 50.50 107.00 L 0.00 106.50 L 67.50 1.00 L 141.50 1.00 L 146.00 10.50 Z" fill="#FFFFFF" fill-rule="evenodd"/>
<path d="M 295.50 107.00 L 181.00 106.50 L 195.50 1.00 L 304.50 1.00 L 318.50 4.00 L 330.00 12.50 L 334.00 22.50 L 334.00 37.50 L 327.00 84.50 L 322.00 93.50 L 316.50 99.00 L 307.50 104.00 Z" fill="#FFFFFF" fill-rule="evenodd"/>
<path d="M 274.00 81.50 L 280.50 79.00 L 286.00 70.50 L 290.00 41.50 L 289.00 31.50 L 284.50 27.00 L 275.50 25.00 L 237.50 25.00 L 236.00 26.50 L 229.00 81.50 Z" fill="#FFFFFF" fill-rule="evenodd"/>
<path d="M 120.50 174.00 L 75.50 174.00 L 74.00 172.50 L 81.50 132.00 L 127.00 132.50 L 125.50 141.00 L 94.50 141.00 L 93.50 148.00 L 119.50 148.00 L 121.00 149.50 L 120.00 155.50 L 92.50 157.00 L 90.00 163.50 L 91.50 165.00 L 122.50 165.00 Z" fill="#FFFFFF" fill-rule="evenodd"/>
<path d="M 186.50 174.00 L 170.50 174.00 L 151.50 147.00 L 150.00 147.50 L 146.00 173.50 L 132.50 174.00 L 138.00 133.50 L 139.50 132.00 L 157.50 132.00 L 175.50 158.00 L 180.00 132.50 L 193.50 132.00 L 189.00 167.50 Z" fill="#FFFFFF" fill-rule="evenodd"/>
<path d="M 227.50 174.00 L 214.00 173.50 L 219.00 141.50 L 201.50 141.00 L 202.50 132.00 L 252.00 132.50 L 250.50 141.00 L 233.00 141.50 Z" fill="#FFFFFF" fill-rule="evenodd"/>
<path d="M 300.50 174.00 L 255.00 173.50 L 261.50 132.00 L 307.00 132.50 L 304.50 141.00 L 274.50 141.00 L 273.00 146.50 L 273.50 148.00 L 299.50 148.00 L 300.00 154.50 L 298.50 156.00 L 272.50 157.00 L 271.00 164.50 L 301.50 165.00 Z" fill="#FFFFFF" fill-rule="evenodd"/>
<path d="M 364.50 174.00 L 348.50 174.00 L 339.50 161.00 L 328.50 161.00 L 325.50 174.00 L 312.50 174.00 L 311.00 172.50 L 317.00 133.50 L 318.50 132.00 L 357.50 132.00 L 365.50 135.00 L 369.00 141.50 L 368.00 150.50 L 364.50 156.00 L 356.00 159.50 Z" fill="#FFFFFF" fill-rule="evenodd"/>
<path d="M 387.50 174.00 L 374.00 173.50 L 380.50 132.00 L 419.50 132.00 L 425.50 134.00 L 429.00 137.50 L 431.00 142.50 L 430.00 150.50 L 423.50 159.00 L 418.50 161.00 L 391.50 161.00 Z" fill="#FFFFFF" fill-rule="evenodd"/>
<path d="M 485.50 174.00 L 470.50 174.00 L 462.50 161.00 L 450.50 161.00 L 447.50 174.00 L 434.50 174.00 L 434.00 168.50 L 440.00 132.50 L 480.50 132.00 L 486.50 134.00 L 490.00 137.50 L 491.00 147.50 L 485.50 157.00 L 478.00 159.50 Z" fill="#FFFFFF" fill-rule="evenodd"/>
<path d="M 509.50 174.00 L 496.00 173.50 L 502.50 132.00 L 516.00 132.50 L 511.00 172.50 Z" fill="#FFFFFF" fill-rule="evenodd"/>
<path d="M 556.50 174.00 L 521.50 174.00 L 520.00 172.50 L 522.50 165.00 L 552.50 165.00 L 557.00 161.50 L 554.50 158.00 L 536.50 157.00 L 527.50 154.00 L 524.00 149.50 L 524.00 140.50 L 528.50 135.00 L 536.50 132.00 L 573.00 132.50 L 570.50 141.00 L 541.50 141.00 L 539.00 142.50 L 539.00 145.50 L 541.50 147.00 L 562.50 149.00 L 570.00 153.50 L 570.00 166.50 L 565.50 171.00 Z" fill="#FFFFFF" fill-rule="evenodd"/>
<path d="M 623.50 174.00 L 578.00 173.50 L 584.50 132.00 L 629.00 132.50 L 627.50 141.00 L 597.50 141.00 L 596.50 148.00 L 622.50 149.00 L 623.00 153.50 L 621.50 156.00 L 617.50 157.00 L 594.50 157.00 L 593.00 163.50 L 594.50 165.00 L 624.50 165.00 Z" fill="#FFFFFF" fill-rule="evenodd"/>
<path d="M 668.50 174.00 L 633.00 173.50 L 634.50 165.00 L 666.50 165.00 L 670.00 162.50 L 670.00 159.50 L 667.50 158.00 L 650.50 157.00 L 640.50 154.00 L 637.00 149.50 L 637.00 140.50 L 641.50 135.00 L 649.50 132.00 L 686.00 132.50 L 684.50 141.00 L 654.50 141.00 L 652.00 142.50 L 652.00 145.50 L 654.50 147.00 L 676.50 149.00 L 684.00 154.50 L 685.00 162.50 L 683.00 167.50 L 677.50 172.00 Z" fill="#FFFFFF" fill-rule="evenodd"/>
<path d="M 349.00 151.50 L 354.00 146.50 L 351.50 141.00 L 331.50 141.00 L 330.00 142.50 L 329.50 152.00 Z" fill="#FFFFFF" fill-rule="evenodd"/>
<path d="M 412.00 151.50 L 416.00 147.50 L 413.50 141.00 L 393.00 141.50 L 391.50 152.00 Z" fill="#FFFFFF" fill-rule="evenodd"/>
<path d="M 472.00 151.50 L 476.00 147.50 L 476.00 143.50 L 473.50 141.00 L 453.00 141.50 L 451.00 150.50 L 452.50 152.00 Z" fill="#FFFFFF" fill-rule="evenodd"/>
<path d="M 494.50 78.00 L 491.00 77.50 L 492.00 66.50 L 494.50 63.00 L 568.50 51.00 L 572.00 51.50 L 571.50 60.00 Z" fill="#D61F2C" fill-rule="evenodd"/>
<path d="M 67.50 81.00 L 68.00 77.50 L 81.50 59.00 L 94.50 60.00 L 117.50 57.00 L 130.50 57.00 L 133.00 60.50 L 130.00 63.50 L 130.50 65.00 L 126.50 64.00 L 126.50 66.00 L 123.50 65.00 L 122.50 67.00 L 120.50 66.00 L 118.50 68.00 L 70.50 79.00 Z" fill="#D61F2C" fill-rule="evenodd"/>
<path d="M 36.50 229.00 L 24.00 228.50 L 159.50 213.00 L 359.50 198.00 L 569.50 188.00 L 748.50 183.00 L 791.00 183.50 L 751.50 206.00 L 586.50 206.00 L 400.50 210.00 L 182.50 219.00 L 49.50 227.00 Z" fill="#D61F2C" fill-rule="evenodd"/>
<path d="M 21.50 230.00 L 18.00 229.50 Z" fill="#D61F2C" fill-rule="evenodd"/>
</svg>